#!OML:ASF F:\VICON\USERDATA\INSTALL\rory3\rory3.ASF
:FULLY-SPECIFIED
:DEGREES
525
root 11.721 17.6433 10.8109 -2.35855 8.76305 2.94126
lowerback 12.118 2.3838 3.24231
upperback 1.03844 3.71663 1.86432
thorax -5.61882 1.77081 -0.487178
lowerneck -18.9161 5.38077 -7.58359
upperneck 39.5519 11.0692 1.70448
head 17.1142 3.72722 4.26258
rclavicle 3.02153e-014 1.59028e-014
rhumerus -36.3152 -16.3579 -69.5639
rradius 31.4309
rwrist 6.85994
rhand -16.717 9.30739
rfingers 7.12502
rthumb 9.50844 -20.4581
lclavicle 3.02153e-014 1.59028e-014
lhumerus -31.9244 16.2178 76.9828
lradius 36.0205
lwrist -3.26127
lhand -20.9644 26.119
lfingers 7.12502
lthumb 5.40876 56.03
rfemur -7.40172 -3.28133 19.7972
rtibia 36.5937
rfoot -21.6461 -3.83643
rtoes 1.13541
lfemur -11.457 -2.62021 -18.4681
ltibia 38.2505
lfoot -20.1427 -5.34784
ltoes -19.6065
526
root 11.7832 17.6647 10.8173 -2.51021 8.63878 2.85358
lowerback 12.3073 2.41225 3.24705
upperback 1.02068 3.76548 1.87917
thorax -5.74256 1.79206 -0.491882
lowerneck -18.8999 5.39007 -7.51651
upperneck 39.8163 10.9696 1.97931
head 17.2345 3.72133 4.37158
rclavicle -8.64713e-015 -7.95139e-015
rhumerus -36.3076 -17.0457 -69.2736
rradius 31.21
rwrist 6.91724
rhand -16.8265 9.34272
rfingers 7.12502
rthumb 9.40278 -20.4275
lclavicle -8.64713e-015 -7.95139e-015
lhumerus -32.3011 15.7052 77.0754
lradius 36.0292
lwrist -3.70677
lhand -20.9359 25.5007
lfingers 7.12502
lthumb 5.43624 55.411
rfemur -6.95402 -3.05404 19.674
rtibia 36.0318
rfoot -21.3633 -3.82247
rtoes 1.5784
lfemur -11.309 -2.83945 -17.8988
ltibia 38.1591
lfoot -19.2686 -3.39943
ltoes -17.2764
527
root 11.8444 17.6827 10.8182 -2.59112 8.58708 2.91079
lowerback 12.4593 2.41553 3.0882
upperback 1.05278 3.75414 1.88413
thorax -5.80409 1.78944 -0.40266
lowerneck -18.9399 5.38756 -7.37678
upperneck 39.8499 10.9395 1.92824
head 17.2805 3.7171 4.32618
rclavicle -3.18055e-015 -1.11319e-014
rhumerus -36.1204 -17.8481 -68.9423
rradius 30.9357
rwrist 6.97064
rhand -16.9888 9.55097
rfingers 7.12502
rthumb 9.24618 -20.2263
lclavicle -3.18055e-015 -1.11319e-014
lhumerus -32.5875 15.4219 77.1258
lradius 35.912
lwrist -4.1571
lhand -20.895 26.0181
lfingers 7.12502
lthumb 5.4757 55.9274
rfemur -6.6157 -2.92337 19.3846
rtibia 35.5629
rfoot -21.1126 -3.78731
rtoes 1.37029
lfemur -11.2333 -3.07337 -17.4361
ltibia 37.9784
lfoot -18.4256 -2.07947
ltoes -14.2384
528
root 11.9103 17.7002 10.8236 -2.59838 8.56224 3.11326
lowerback 12.4195 2.39324 2.83611
upperback 1.16765 3.68129 1.84124
thorax -5.67502 1.76259 -0.289754
lowerneck -19.1525 5.39892 -7.31742
upperneck 39.8708 10.9485 1.94445
head 17.3473 3.72227 4.33942
rclavicle -1.64991e-014 2.54444e-014
rhumerus -35.7809 -18.7076 -68.6814
rradius 30.7161
rwrist 7.0286
rhand -17.1518 9.46046
rfingers 7.12502
rthumb 9.08891 -20.3237
lclavicle -1.64991e-014 2.54444e-014
lhumerus -32.7155 15.4293 77.0951
lradius 35.7275
lwrist -5.13831
lhand -20.7178 27.016
lfingers 7.12502
lthumb 5.64679 56.9208
rfemur -6.33004 -2.93988 18.8928
rtibia 35.1716
rfoot -20.9684 -3.74438
rtoes 0.435656
lfemur -11.1193 -3.35414 -17.1458
ltibia 37.7011
lfoot -17.7926 -0.894786
ltoes -12.7063
529
root 11.9807 17.7176 10.8329 -2.56474 8.40571 3.28806
lowerback 12.3595 2.40322 2.67309
upperback 1.18858 3.66416 1.76338
thorax -5.62468 1.75817 -0.273957
lowerneck -19.1502 5.39841 -7.30728
upperneck 39.822 10.8737 2.07893
head 17.309 3.71647 4.37935
rclavicle -6.36111e-015 4.45278e-014
rhumerus -35.6862 -19.4253 -68.4756
rradius 30.6408
rwrist 6.90229
rhand -17.4128 8.99835
rfingers 7.12502
rthumb 8.83704 -20.7966
lclavicle -6.36111e-015 4.45278e-014
lhumerus -32.956 15.4853 76.9407
lradius 35.5721
lwrist -6.49975
lhand -19.9777 27.1977
lfingers 7.12502
lthumb 6.3613 57.0822
rfemur -6.10375 -2.93446 18.4194
rtibia 34.8091
rfoot -20.9435 -3.5855
rtoes 0.228367
lfemur -11.0266 -3.53958 -16.8211
ltibia 37.3747
lfoot -17.1383 0.0824467
ltoes -12.1772
530
root 12.0506 17.7378 10.8379 -2.51378 8.26407 3.4522
lowerback 12.3679 2.43169 2.49744
upperback 1.14645 3.67463 1.68327
thorax -5.67921 1.76538 -0.262903
lowerneck -18.9959 5.40173 -7.24196
upperneck 39.7004 10.7682 2.19107
head 17.2004 3.71289 4.38059
rclavicle 1.02374e-014 1.59028e-015
rhumerus -35.6961 -20.3067 -68.1792
rradius 30.5096
rwrist 6.91337
rhand -17.5225 8.55566
rfingers 7.12502
rthumb 8.73114 -21.2438
lclavicle 1.02374e-014 1.59028e-015
lhumerus -33.2667 15.2348 76.9604
lradius 35.4602
lwrist -6.91189
lhand -20.1766 25.9641
lfingers 7.12502
lthumb 6.1693 55.8542
rfemur -5.92365 -2.87216 17.9704
rtibia 34.4299
rfoot -20.788 -3.37653
rtoes 0.783712
lfemur -10.994 -3.76374 -16.4567
ltibia 37.0118
lfoot -16.4457 0.810332
ltoes -11.8202
531
root 12.1176 17.7553 10.8371 -2.53824 8.19914 3.53359
lowerback 12.5569 2.43261 2.38523
upperback 1.10461 3.66451 1.61865
thorax -5.83144 1.75947 -0.276216
lowerneck -18.9335 5.36809 -7.26782
upperneck 39.607 10.6381 2.34513
head 17.1228 3.687 4.41833
rclavicle -1.30204e-014 1.59028e-015
rhumerus -35.7348 -21.0915 -67.9549
rradius 30.4836
rwrist 6.72972
rhand -17.6684 8.49324
rfingers 7.12502
rthumb 8.5903 -21.312
lclavicle -1.30204e-014 1.59028e-015
lhumerus -33.6457 14.6539 77.0794
lradius 35.5431
lwrist -6.55567
lhand -21.1608 25.3569
lfingers 7.12502
lthumb 5.21911 55.2726
rfemur -5.64349 -2.69566 17.6527
rtibia 34.0152
rfoot -20.5119 -3.4423
rtoes 0.0698557
lfemur -10.9416 -4.05558 -15.9491
ltibia 36.67
lfoot -15.9321 1.05458
ltoes -11.4264
532
root 12.1875 17.7704 10.8431 -2.60329 8.07079 3.42611
lowerback 12.6791 2.43335 2.4829
upperback 1.10342 3.68254 1.6045
thorax -5.89333 1.76448 -0.354551
lowerneck -18.7956 5.27392 -7.29874
upperneck 39.3164 10.4846 2.2674
head 16.9474 3.62905 4.33352
rclavicle 3.95581e-014 2.38542e-014
rhumerus -35.8743 -21.4989 -67.9143
rradius 30.872
rwrist 6.18178
rhand -18.1484 8.27965
rfingers 7.12502
rthumb 8.12709 -21.5441
lclavicle 3.95581e-014 2.38542e-014
lhumerus -34.009 14.2246 77.1149
lradius 35.6452
lwrist -6.5713
lhand -22.6226 27.7407
lfingers 7.12502
lthumb 3.80756 57.6865
rfemur -5.28502 -2.45497 17.5467
rtibia 33.5651
rfoot -20.3449 -3.64633
rtoes -1.35431
lfemur -10.8679 -4.33567 -15.2116
ltibia 36.3547
lfoot -15.4438 0.933947
ltoes -10.2959
533
root 12.2619 17.7835 10.8513 -2.655 7.83157 3.2476
lowerback 12.675 2.45755 2.67004
upperback 1.16444 3.74016 1.63045
thorax -5.81523 1.78999 -0.439927
lowerneck -18.6728 5.20431 -7.34739
upperneck 38.9672 10.3816 2.16349
head 16.7442 3.58822 4.2469
rclavicle 1.83876e-014 1.59028e-015
rhumerus -35.8615 -21.7255 -67.9663
rradius 31.1947
rwrist 5.37926
rhand -18.5538 8.11298
rfingers 7.12502
rthumb 7.73579 -21.7255
lclavicle 1.83876e-014 1.59028e-015
lhumerus -34.2881 14.3166 77.0119
lradius 35.6692
lwrist -7.32628
lhand -22.8544 28.6207
lfingers 7.12502
lthumb 3.58369 58.5703
rfemur -4.97273 -2.1986 17.4935
rtibia 33.0984
rfoot -20.1696 -3.64229
rtoes -1.7589
lfemur -10.8065 -4.55237 -14.3969
ltibia 36.0522
lfoot -14.846 0.904286
ltoes -9.66942
534
root 12.3401 17.7951 10.8537 -2.63951 7.60748 3.25289
lowerback 12.6805 2.47203 2.73384
upperback 1.20001 3.76376 1.5782
thorax -5.77229 1.80027 -0.533564
lowerneck -18.6778 5.21788 -7.31916
upperneck 38.8725 10.3588 2.20689
head 16.6928 3.59445 4.25043
rclavicle -5.46658e-015 7.95139e-015
rhumerus -35.7688 -21.9247 -68.0559
rradius 31.4264
rwrist 4.62299
rhand -18.2963 8.13428
rfingers 7.12502
rthumb 7.9844 -21.6949
lclavicle -5.46658e-015 7.95139e-015
lhumerus -34.6596 14.6633 76.7419
lradius 35.7197
lwrist -8.44921
lhand -20.9765 28.7193
lfingers 7.12502
lthumb 5.39702 58.6306
rfemur -4.76033 -1.99141 17.2037
rtibia 32.6749
rfoot -20.0179 -3.52221
rtoes -1.82139
lfemur -10.7892 -4.81632 -13.7863
ltibia 35.7075
lfoot -14.3047 0.836847
ltoes -8.99052
